# xmcd
#
# Track frame offsets: 
#        150
#        17312
#        34910
#        48200
#        64567
#        75060
#        86847
#        100080
#        109617
#        124212
#        145137
#        160172
#
# Disc length: 2430 seconds
#
# Revision: 8
# Processed by: cddbd v1.5PL3 Copyright (c) Steve Scherf et al.
# Submitted via: ExactAudioCopy v0.95a3
#
DISCID=85097c0c
DTITLE=3-D - TEMA 3-D
DYEAR=1964
DGENRE=Latin
TTITLE0=CONSOLACAO
TTITLE1=CLOUDS
TTITLE2=CEU E MAR
TTITLE3=AMOR E PAZ
TTITLE4=SAMBA DO SOM
TTITLE5=GAROTA DE IPANEMA
TTITLE6=TEMA 3-D
TTITLE7=SAMBA DE UMA NOTA SO
TTITLE8=MANHA SEM VOCE
TTITLE9=FLY ME TO THE MOON
TTITLE10=A MORTE DE UM DEUS DE SAL
TTITLE11=BERIMBAU
EXTD=
EXTT0=
EXTT1=
EXTT2=
EXTT3=
EXTT4=
EXTT5=
EXTT6=
EXTT7=
EXTT8=
EXTT9=
EXTT10=
EXTT11=
PLAYORDER=
